<svg width="216" height="136" viewBox="0 0 216 136" fill="none" xmlns="http://www.w3.org/2000/svg">
<circle cx="183.273" cy="73.3091" r="31.8987" fill="#0C36CA" fill-opacity="0.52" stroke="white" stroke-width="1.65708"/>
<path d="M177.473 100.237L173.33 103.136L159.245 94.4368L153.445 84.0801L152.203 77.0375L157.588 75.7947L163.802 68.7521L173.33 72.4805L177.473 81.1802L171.673 90.2941L177.473 100.237Z" fill="#0C36CA" fill-opacity="0.52"/>
<path d="M208.129 82.423L211.857 86.98L202.329 98.9938L194.458 100.237M194.458 100.237L199.015 86.98M194.458 100.237H177.473M177.473 100.237L173.33 103.136L159.245 94.4368M177.473 100.237L171.673 90.2941M159.245 94.4368L161.316 86.98M159.245 94.4368L153.445 84.0801L152.203 77.0375L157.588 75.7947M161.316 86.98L171.673 90.2941M161.316 86.98L157.588 75.7947M171.673 90.2941L177.473 81.1802L173.33 72.4805L163.802 68.7521M163.802 68.7521L157.588 75.7947M163.802 68.7521L161.316 59.2239M161.316 59.2239L169.602 50.5243L162.559 49.2815M161.316 59.2239H155.102" stroke="white" stroke-width="0.828538"/>
<path d="M172.916 72.4805L180.373 65.438H183.687L192.387 72.4805L189.073 80.7659H177.473L172.916 72.4805Z" fill="#0C36CA" fill-opacity="0.52" stroke="white" stroke-width="0.828538"/>
<path d="M181.616 65.4379V53.4241" stroke="white" stroke-width="0.828538"/>
<path d="M169.602 50.9386L181.616 53.8384L195.287 46.7959L189.901 42.6532H176.644L174.573 44.3102L169.602 50.9386Z" fill="#0C36CA" fill-opacity="0.52" stroke="white" stroke-width="0.828538"/>
<path d="M203.572 66.6808L206.058 56.324L209.786 55.0812L214.343 66.6808L209.786 69.5806L208.129 82.8373L199.429 86.1514L189.487 80.3517L192.387 71.652L203.572 66.6808Z" fill="#0C36CA" fill-opacity="0.52"/>
<path d="M195.287 46.7958L206.058 56.324M206.058 56.324L203.572 66.6808M206.058 56.324L209.786 55.0812L214.343 66.6808L209.786 69.5806M203.572 66.6808L192.387 71.652L189.487 80.3517L199.429 86.1514L208.129 82.8373L209.786 69.5806M203.572 66.6808L209.786 69.5806" stroke="white" stroke-width="0.828538"/>
<path d="M63.5711 60.5952C63.5711 62.0225 63.0405 63.6695 61.9791 65.536C60.9178 67.4025 59.4172 69.0128 57.4775 70.3669C55.5378 71.6845 53.3236 72.3432 50.8349 72.3432C48.3829 72.3432 46.5713 71.6662 45.4001 70.312C44.229 68.9579 43.6434 67.2744 43.6434 65.2615C43.6434 63.5048 43.9545 61.3272 44.5766 58.7287C45.2354 56.1302 46.1504 53.8062 47.3215 51.7567C47.3947 51.6103 47.6875 51.0797 48.1999 50.1647C48.7488 49.2131 49.3527 48.4995 50.0115 48.0237C50.6703 47.5113 51.3656 47.2551 52.0976 47.2551C52.427 47.2551 52.7198 47.3466 52.9759 47.5296C53.2687 47.676 53.4151 47.8773 53.4151 48.1335C53.4151 48.2067 53.3053 48.3897 53.0857 48.6825C52.9027 48.9387 52.7564 49.14 52.6466 49.2863C51.4022 50.7869 50.3958 52.2691 49.6272 53.733C48.6025 55.5995 47.7973 57.4478 47.2117 59.2777C46.6627 61.1076 46.3883 63.1022 46.3883 65.2615C46.3883 68.1527 48.145 69.5984 51.6584 69.5984C53.3053 69.5984 54.8242 69.1226 56.2149 68.171C57.6422 67.2195 58.7768 66.0666 59.6185 64.7125C60.4603 63.3218 60.8812 62.0591 60.8812 60.9246C60.8812 59.6436 60.4603 58.5274 59.6185 57.5758C58.7768 56.6243 57.6239 55.6178 56.16 54.5565C55.2084 53.8611 54.5131 53.2939 54.0739 52.8547C53.6347 52.4155 53.4151 52.0495 53.4151 51.7567C53.4151 51.3175 53.7262 50.9699 54.3484 50.7137C54.9705 50.4209 55.7025 50.2745 56.5443 50.2745C57.02 50.2745 57.3311 50.3111 57.4775 50.3843C57.6239 50.4209 57.6971 50.5124 57.6971 50.6588C57.6971 50.732 57.6239 50.8601 57.4775 51.0431C57.3677 51.1895 57.3128 51.3175 57.3128 51.4273C57.3128 51.5371 57.6788 51.9031 58.4108 52.5253C59.8747 53.733 61.1008 54.9591 62.0889 56.2034C63.0771 57.4478 63.5711 58.9117 63.5711 60.5952ZM84.6371 59.8815C84.6371 60.1011 84.2529 60.7782 83.4843 61.9127C82.7523 63.0473 82.0021 64.072 81.2335 64.987C79.3304 67.2927 77.6103 69.0677 76.0731 70.312C74.5726 71.5564 72.9989 72.1785 71.352 72.1785C69.9612 72.1785 68.8084 71.5747 67.8934 70.3669C67.0151 69.1592 66.5759 67.7685 66.5759 66.1947C66.5759 63.8524 67.1981 60.888 68.4424 57.3014C69.6868 53.7147 71.2605 50.6039 73.1636 47.9688C75.0667 45.3337 76.9698 44.0162 78.8729 44.0162C79.6781 44.0162 80.3734 44.309 80.959 44.8946C81.2884 45.2239 81.5995 45.6631 81.8923 46.2121C82.1851 46.7611 82.3314 47.2551 82.3314 47.6943C82.3314 48.3165 82.2399 49.0485 82.057 49.8902C81.9106 50.6954 81.7459 51.098 81.5629 51.098C81.1969 51.098 80.959 50.8967 80.8492 50.4941C80.7394 50.0915 80.6662 49.5791 80.6296 48.957C80.5198 48.0054 80.41 47.3832 80.3002 47.0905C80.1904 46.7611 80.0258 46.5964 79.8062 46.5964C78.086 46.5964 76.4208 47.8041 74.8105 50.2196C73.2002 52.5985 71.8826 55.38 70.8579 58.564C69.8331 61.7114 69.3208 64.1452 69.3208 65.8653C69.3208 68.2808 70.1259 69.4886 71.7363 69.4886C72.9074 69.4886 73.9687 69.1958 74.9203 68.6102C75.9085 68.0246 76.9332 67.2012 77.9946 66.1398C79.9709 64.1269 81.508 62.3885 82.6059 60.9246C82.6791 60.8148 82.8804 60.5403 83.2098 60.1011C83.5758 59.6253 83.832 59.3875 83.9784 59.3875C84.4175 59.3875 84.6371 59.5522 84.6371 59.8815ZM105.009 59.8815C105.009 60.1011 104.625 60.7782 103.856 61.9127C103.124 63.0473 102.374 64.072 101.606 64.987C99.7025 67.2927 97.9823 69.0677 96.4452 70.312C94.9447 71.5564 93.371 72.1785 91.724 72.1785C90.3333 72.1785 89.1805 71.5747 88.2655 70.3669C87.3871 69.1592 86.948 67.7685 86.948 66.1947C86.948 63.8524 87.5701 60.888 88.8145 57.3014C90.0588 53.7147 91.6325 50.6039 93.5357 47.9688C95.4388 45.3337 97.3419 44.0162 99.245 44.0162C100.05 44.0162 100.746 44.309 101.331 44.8946C101.66 45.2239 101.972 45.6631 102.264 46.2121C102.557 46.7611 102.704 47.2551 102.704 47.6943C102.704 48.3165 102.612 49.0485 102.429 49.8902C102.283 50.6954 102.118 51.098 101.935 51.098C101.569 51.098 101.331 50.8967 101.221 50.4941C101.111 50.0915 101.038 49.5791 101.002 48.957C100.892 48.0054 100.782 47.3832 100.672 47.0905C100.563 46.7611 100.398 46.5964 100.178 46.5964C98.4581 46.5964 96.7929 47.8041 95.1826 50.2196C93.5723 52.5985 92.2547 55.38 91.23 58.564C90.2052 61.7114 89.6928 64.1452 89.6928 65.8653C89.6928 68.2808 90.498 69.4886 92.1083 69.4886C93.2795 69.4886 94.3408 69.1958 95.2924 68.6102C96.2805 68.0246 97.3053 67.2012 98.3666 66.1398C100.343 64.1269 101.88 62.3885 102.978 60.9246C103.051 60.8148 103.252 60.5403 103.582 60.1011C103.948 59.6253 104.204 59.3875 104.35 59.3875C104.79 59.3875 105.009 59.5522 105.009 59.8815ZM129.499 57.9601C129.755 57.9601 129.883 58.2346 129.883 58.7836C129.883 59.4424 129.389 60.888 128.401 63.1205C127.449 65.353 125.985 67.4208 124.009 69.3239C122.069 71.227 119.672 72.1785 116.817 72.1785C114.475 72.1785 112.517 71.4466 110.943 69.9826C109.37 68.5187 108.583 66.2679 108.583 63.2303C108.583 60.3756 109.241 57.5575 110.559 54.7761C111.877 51.958 113.597 49.6706 115.719 47.9139C117.842 46.1206 120.038 45.2239 122.307 45.2239C123.661 45.2239 124.796 45.535 125.711 46.1572C126.662 46.7428 127.138 47.6028 127.138 48.7374C127.138 50.0183 126.406 51.2627 124.942 52.4704C123.515 53.6781 121.648 54.7395 119.343 55.6544C117.037 56.5694 114.658 57.2282 112.206 57.6307C111.767 59.3143 111.547 60.9612 111.547 62.5715C111.547 64.6942 112.041 66.3411 113.029 67.5123C114.054 68.6834 115.5 69.269 117.366 69.269C120.184 69.269 122.472 68.2625 124.228 66.2496C125.985 64.2367 127.449 61.9676 128.62 59.4424C128.693 59.296 128.821 59.0215 129.004 58.6189C129.187 58.1797 129.352 57.9601 129.499 57.9601ZM124.668 49.3412C124.668 48.7557 124.357 48.2982 123.734 47.9688C123.149 47.6394 122.453 47.4747 121.648 47.4747C120.258 47.4747 118.922 47.9322 117.641 48.8472C116.36 49.7621 115.28 50.8601 114.402 52.141C113.56 53.4219 113.011 54.5565 112.755 55.5446C114.438 55.3617 116.213 54.8859 118.08 54.1173C119.946 53.3487 121.502 52.507 122.746 51.592C124.027 50.6771 124.668 49.9268 124.668 49.3412ZM153.042 48.8472C153.042 49.1766 152.804 49.5608 152.329 50C151.889 50.4026 151.505 50.6039 151.176 50.6039C150.92 50.6039 150.663 50.4941 150.407 50.2745C150.188 50.0549 149.931 49.7438 149.639 49.3412C149.382 48.9753 149.035 48.6642 148.596 48.408C148.193 48.1518 147.772 48.0237 147.333 48.0237C146.272 48.0237 144.844 49.4327 143.051 52.2508C141.258 55.0323 139.501 58.5457 137.781 62.7911C137.817 63.6329 137.872 64.6942 137.945 65.9751C138.055 67.2561 138.128 68.2076 138.165 68.8298L138.33 71.0257C138.33 71.5381 138.22 71.9773 138 72.3432C137.781 72.7458 137.378 72.9471 136.793 72.9471C136.17 72.9471 135.768 72.1236 135.585 70.4767C135.402 68.7932 135.292 66.3594 135.255 63.1754C135.219 62.3702 135.182 61.2174 135.146 59.7168C135.146 58.2163 135.109 56.423 135.036 54.3369C134.926 51.1895 134.871 48.9387 134.871 47.5845C134.871 46.7428 135.384 46.3219 136.408 46.3219C137.031 46.3219 137.396 46.5964 137.506 47.1453C137.653 47.6577 137.726 48.6642 137.726 50.1647V58.8934C138.824 56.0753 140.013 53.6415 141.294 51.592C142.575 49.5425 143.819 47.9871 145.027 46.9258C146.272 45.8278 147.37 45.2788 148.321 45.2788C149.126 45.2788 149.895 45.4618 150.627 45.8278C151.359 46.1938 151.944 46.6696 152.383 47.2551C152.823 47.8041 153.042 48.3348 153.042 48.8472Z" fill="#0C36CA" fill-opacity="0.92"/>
<path d="M45.1256 84.6287C45.1256 87.8494 43.8081 90.9602 41.173 93.9613C38.6111 96.8891 35.2075 99.2314 30.9621 100.988C26.7167 102.818 22.2883 103.733 17.6769 103.733C14.5295 103.733 12.4068 103.44 11.3089 102.855C10.2109 102.269 9.66194 101.464 9.66194 100.439C9.66194 99.7804 10.5037 98.6459 12.1872 97.0355C13.8707 95.352 15.0053 94.5103 15.5908 94.5103C16.4692 94.5103 16.9084 94.6933 16.9084 95.0592C16.9084 95.352 16.7254 95.6448 16.3594 95.9376C15.9934 96.2304 15.8104 96.4866 15.8104 96.7062C15.8104 96.9989 16.2496 97.2917 17.128 97.5845C18.0795 97.8773 19.2141 98.0237 20.5316 98.0237C23.6059 98.0237 26.6801 97.4747 29.7544 96.3768C32.9018 95.2056 35.4637 93.7051 37.44 91.8752C39.4163 90.0453 40.4045 88.1056 40.4045 86.0561C40.4045 84.0798 39.7823 82.506 38.5379 81.3349C37.2936 80.1638 35.7199 79.322 33.8168 78.8096C31.9869 78.224 28.876 77.4189 24.4842 76.3941C19.6533 75.2962 15.8836 74.3446 13.1754 73.5395C10.5403 72.6611 8.41759 71.5998 6.80727 70.3554C5.19695 69.0379 4.39179 67.391 4.39179 65.4147C4.39179 61.9012 6.11191 58.6806 9.55214 55.7527C12.9924 52.8249 16.945 50.5192 21.41 48.8357C25.875 47.1521 29.3152 46.3104 31.7307 46.3104C34.2194 46.3104 35.4637 47.0424 35.4637 48.5063C35.4637 49.3846 35.1709 50.3728 34.5853 51.4707C33.9998 52.4955 33.1214 53.0079 31.9503 53.0079C31.5111 53.0079 31.0353 52.8615 30.5229 52.5687C30.0106 52.2027 29.4982 52.0197 28.9858 52.0197C27.5219 52.0197 25.2162 52.4955 22.0687 53.447C18.9213 54.3986 16.0666 55.8259 13.5047 57.729C10.9429 59.6321 9.66194 61.9378 9.66194 64.6461C9.66194 66.4028 10.6501 67.7204 12.6264 68.5987C14.6759 69.4039 18.4455 70.4286 23.9352 71.673C24.594 71.8926 25.2528 72.0755 25.9116 72.2219C26.5703 72.2951 27.1559 72.4049 27.6683 72.5513C33.3044 73.8689 37.623 75.3694 40.624 77.0529C43.6251 78.7364 45.1256 81.2617 45.1256 84.6287Z" fill="#0C36CA" fill-opacity="0.92"/>
<path d="M68.8413 87.3302C68.8413 89.9287 67.1578 91.9416 63.7907 93.3689C60.4237 94.7963 56.0319 95.7112 50.6154 96.1138C50.5422 98.6025 50.5056 100.634 50.5056 102.207C50.5056 104.294 50.5971 106.197 50.78 107.917C50.8532 108.575 50.8898 109.033 50.8898 109.289C50.8898 109.875 50.7617 110.369 50.5056 110.771C50.2494 111.211 49.8834 111.43 49.4076 111.43C48.7488 111.43 48.3829 111.192 48.3097 110.716C48.2731 110.094 48.2182 109.124 48.145 107.807C48.1084 106.526 48.0901 105.227 48.0901 103.909L48.145 96.2236C47.962 96.2236 47.6143 96.2419 47.1019 96.2785C46.6261 96.3151 46.1504 96.3334 45.6746 96.3334C44.7962 96.3334 44.3571 95.7295 44.3571 94.5218C44.3571 93.6434 44.5766 93.2042 45.0158 93.2042C45.1622 93.2042 45.6014 93.314 46.3334 93.5336C47.0653 93.7532 47.6875 93.863 48.1999 93.863L48.145 78.3271C47.8522 78.2905 47.2483 78.2356 46.3334 78.1624C45.4184 78.0526 44.7413 77.8696 44.3022 77.6134C43.8996 77.3572 43.6983 76.9912 43.6983 76.5154C43.6983 75.5639 43.8813 75.0881 44.2473 75.0881C44.6498 75.0881 45.1439 75.2345 45.7295 75.5273C45.8027 75.5639 46.0223 75.6737 46.3883 75.8567C46.7542 76.0031 47.2666 76.1129 47.9254 76.1861C48.145 75.6005 48.3463 75.1979 48.5293 74.9783C48.7488 74.7587 49.1514 74.6489 49.737 74.6489C50.469 74.6489 50.8349 74.7953 50.8349 75.0881C50.8349 75.1979 50.78 75.3992 50.6703 75.692C50.5605 75.9482 50.5056 76.2044 50.5056 76.4605C52.7747 76.7899 55.3365 77.467 58.1912 78.4917C61.0825 79.4799 63.5711 80.7425 65.6572 82.2797C67.7799 83.8168 68.8413 85.5003 68.8413 87.3302ZM66.4807 87.5498C66.4807 86.0127 65.6023 84.6219 63.8456 83.3776C62.0889 82.1333 59.9662 81.1085 57.4775 80.3034C55.0254 79.4982 52.6649 78.9126 50.3958 78.5466C50.469 80.6693 50.5239 83.4874 50.5605 87.0008C50.5971 90.4777 50.6154 92.7834 50.6154 93.9179C52.8113 93.9179 55.1535 93.6434 57.6422 93.0944C60.1309 92.5089 62.217 91.7403 63.9005 90.7888C65.6206 89.8006 66.4807 88.721 66.4807 87.5498ZM95.8774 96.9922C95.914 97.2483 96.0604 97.5228 96.3165 97.8156C96.5727 98.0718 96.7008 98.2914 96.7008 98.4744C96.7008 98.9136 96.5178 99.4259 96.1519 100.012C95.7859 100.56 95.4199 100.835 95.0539 100.835C94.4317 100.835 93.956 100.451 93.6266 99.6821C93.2972 98.9136 93.1325 98.0169 93.1325 96.9922C93.1325 96.1138 93.1874 93.4787 93.2972 89.0869L93.3521 87.0008C93.3521 86.1591 93.1325 85.5552 92.6933 85.1892C91.0464 87.9707 89.5093 90.3862 88.0819 92.4357C86.6546 94.4852 84.843 96.4249 82.6471 98.2548C80.4512 100.048 78.1455 100.945 75.73 100.945C74.5589 100.945 73.6439 100.579 72.9852 99.8468C72.363 99.1149 72.0519 98.1633 72.0519 96.9922C72.0519 95.5282 72.7107 93.5336 74.0282 91.0083C75.3458 88.4465 77.0293 85.8663 79.0788 83.2678C81.1283 80.6327 83.1778 78.4734 85.2273 76.7899C86.5814 75.692 87.6611 74.96 88.4662 74.594C89.2714 74.1915 89.9851 73.9902 90.6072 73.9902C91.1928 73.9902 91.7967 74.1732 92.4188 74.5391C93.041 74.9051 93.5717 75.4175 94.0109 76.0763C94.45 76.735 94.6696 77.4853 94.6696 78.3271C94.6696 79.4616 94.3585 80.5412 93.7364 81.566L94.6696 81.2915C95.0722 81.2915 95.3101 81.7856 95.3833 82.7737C95.4199 83.3593 95.4565 84.5488 95.4931 86.3421C95.5663 88.1354 95.6212 89.6176 95.6578 90.7888C95.6944 91.9965 95.731 93.1676 95.7676 94.3022C95.8042 95.4367 95.8408 96.3334 95.8774 96.9922ZM76.4986 97.9803C78.4749 97.9803 80.378 97.2483 82.2079 95.7844C84.0378 94.3205 85.6665 92.5821 87.0938 90.5692C88.5577 88.5197 90.168 86.0127 91.9248 83.0482C92.3639 81.9503 92.5835 80.7608 92.5835 79.4799C92.5835 78.7113 92.3456 78.0526 91.8699 77.5036C91.4307 76.918 90.8268 76.6252 90.0582 76.6252C89.1433 76.6252 87.9721 77.2474 86.5448 78.4917C84.8979 79.8825 83.1595 81.749 81.3296 84.0913C79.4997 86.397 77.9808 88.6844 76.7731 90.9534C75.5653 93.2225 74.9615 95.0158 74.9615 96.3334C74.9615 97.4313 75.4739 97.9803 76.4986 97.9803ZM118.841 88.4282C118.841 88.6478 118.456 89.3248 117.688 90.4594C116.956 91.5939 116.206 92.6187 115.437 93.5336C113.534 95.8393 111.814 97.6143 110.277 98.8587C108.776 100.103 107.203 100.725 105.556 100.725C104.165 100.725 103.012 100.121 102.097 98.9136C101.219 97.7058 100.78 96.3151 100.78 94.7414C100.78 92.3991 101.402 89.4346 102.646 85.848C103.89 82.2614 105.464 79.1505 107.367 76.5154C109.27 73.8804 111.173 72.5628 113.077 72.5628C113.882 72.5628 114.577 72.8556 115.163 73.4412C115.492 73.7706 115.803 74.2098 116.096 74.7587C116.389 75.3077 116.535 75.8018 116.535 76.241C116.535 76.8631 116.444 77.5951 116.261 78.4368C116.114 79.242 115.949 79.6446 115.767 79.6446C115.401 79.6446 115.163 79.4433 115.053 79.0407C114.943 78.6381 114.87 78.1258 114.833 77.5036C114.723 76.552 114.614 75.9299 114.504 75.6371C114.394 75.3077 114.229 75.143 114.01 75.143C112.29 75.143 110.624 76.3507 109.014 78.7662C107.404 81.1451 106.086 83.9266 105.062 87.1106C104.037 90.2581 103.524 92.6919 103.524 94.412C103.524 96.8275 104.33 98.0352 105.94 98.0352C107.111 98.0352 108.172 97.7424 109.124 97.1568C110.112 96.5713 111.137 95.7478 112.198 94.6865C114.174 92.6736 115.712 90.9351 116.81 89.4712C116.883 89.3614 117.084 89.0869 117.413 88.6478C117.779 88.172 118.036 87.9341 118.182 87.9341C118.621 87.9341 118.841 88.0988 118.841 88.4282ZM143.33 86.5068C143.586 86.5068 143.714 86.7812 143.714 87.3302C143.714 87.989 143.22 89.4346 142.232 91.6671C141.281 93.8996 139.817 95.9674 137.84 97.8705C135.901 99.7736 133.503 100.725 130.649 100.725C128.307 100.725 126.349 99.9932 124.775 98.5293C123.201 97.0654 122.414 94.8146 122.414 91.7769C122.414 88.9222 123.073 86.1042 124.391 83.3227C125.708 80.5046 127.428 78.2173 129.551 76.4605C131.674 74.6672 133.869 73.7706 136.139 73.7706C137.493 73.7706 138.627 74.0817 139.542 74.7038C140.494 75.2894 140.97 76.1495 140.97 77.284C140.97 78.5649 140.238 79.8093 138.774 81.017C137.346 82.2248 135.48 83.2861 133.174 84.2011C130.868 85.116 128.49 85.7748 126.037 86.1774C125.598 87.8609 125.379 89.5078 125.379 91.1181C125.379 93.2408 125.873 94.8878 126.861 96.0589C127.886 97.23 129.331 97.8156 131.198 97.8156C134.016 97.8156 136.303 96.8092 138.06 94.7963C139.817 92.7834 141.281 90.5143 142.452 87.989C142.525 87.8426 142.653 87.5681 142.836 87.1655C143.019 86.7263 143.184 86.5068 143.33 86.5068ZM138.499 77.8879C138.499 77.3023 138.188 76.8448 137.566 76.5154C136.98 76.1861 136.285 76.0214 135.48 76.0214C134.089 76.0214 132.753 76.4788 131.472 77.3938C130.191 78.3088 129.112 79.4067 128.233 80.6876C127.392 81.9686 126.843 83.1031 126.586 84.0913C128.27 83.9083 130.045 83.4325 131.911 82.6639C133.778 81.8954 135.333 81.0536 136.578 80.1387C137.859 79.2237 138.499 78.4734 138.499 77.8879Z" fill="#0C36CA" fill-opacity="0.92"/>
</svg>
